<svg width="23" height="21" viewBox="0 0 23 21" fill="none" xmlns="http://www.w3.org/2000/svg">
<path d="M4.63225 3.76996C4.21804 3.76996 3.88225 4.10575 3.88225 4.51996C3.88225 4.93417 4.21804 5.26996 4.63225 5.26996V3.76996ZM21.451 4.51996L22.1721 4.726C22.2368 4.49971 22.1915 4.2562 22.0498 4.06831C21.908 3.88043 21.6863 3.76996 21.451 3.76996V4.51996ZM18.976 13.1825L18.2549 12.9764L18.2539 12.9796L18.976 13.1825ZM17.5322 14.27L17.5366 13.52H17.5322V14.27ZM8.551 14.27V13.5199L8.54664 13.52L8.551 14.27ZM7.10725 13.1825L7.82931 12.9796L7.82835 12.9763L7.10725 13.1825ZM3.7135 1.31371L4.4346 1.10752L4.43458 1.10746L3.7135 1.31371ZM2.99163 0.769959V1.51996L2.99242 1.51996L2.99163 0.769959ZM1.41663 0.0199589C1.00241 0.0199589 0.666626 0.355745 0.666626 0.769959C0.666626 1.18417 1.00241 1.51996 1.41663 1.51996V0.0199589ZM8.16663 20.27C9.40927 20.27 10.4166 19.2626 10.4166 18.02H8.91663C8.91663 18.4342 8.58084 18.77 8.16663 18.77V20.27ZM10.4166 18.02C10.4166 16.7773 9.40927 15.77 8.16663 15.77V17.27C8.58084 17.27 8.91663 17.6057 8.91663 18.02H10.4166ZM8.16663 15.77C6.92399 15.77 5.91663 16.7773 5.91663 18.02H7.41663C7.41663 17.6057 7.75241 17.27 8.16663 17.27V15.77ZM5.91663 18.02C5.91663 19.2626 6.92399 20.27 8.16663 20.27V18.77C7.75241 18.77 7.41663 18.4342 7.41663 18.02H5.91663ZM17.9166 20.27C19.1593 20.27 20.1666 19.2626 20.1666 18.02H18.6666C18.6666 18.4342 18.3308 18.77 17.9166 18.77V20.27ZM20.1666 18.02C20.1666 16.7773 19.1593 15.77 17.9166 15.77V17.27C18.3308 17.27 18.6666 17.6057 18.6666 18.02H20.1666ZM17.9166 15.77C16.674 15.77 15.6666 16.7773 15.6666 18.02H17.1666C17.1666 17.6057 17.5024 17.27 17.9166 17.27V15.77ZM15.6666 18.02C15.6666 19.2626 16.674 20.27 17.9166 20.27V18.77C17.5024 18.77 17.1666 18.4342 17.1666 18.02H15.6666ZM4.63225 5.26996H21.451V3.76996H4.63225V5.26996ZM20.7299 4.31392L18.2549 12.9764L19.6971 13.3885L22.1721 4.726L20.7299 4.31392ZM18.2539 12.9796C18.2101 13.1358 18.1161 13.2733 17.9865 13.3709L18.889 14.5691C19.2811 14.2737 19.5653 13.8578 19.6981 13.3853L18.2539 12.9796ZM17.9865 13.3709C17.8569 13.4686 17.6989 13.5209 17.5366 13.52L17.5279 15.0199C18.0187 15.0228 18.4969 14.8644 18.889 14.5691L17.9865 13.3709ZM17.5322 13.52H8.551V15.02H17.5322V13.52ZM8.54664 13.52C8.3844 13.5209 8.22633 13.4686 8.09673 13.3709L7.19425 14.5691C7.58632 14.8644 8.06452 15.0228 8.55536 15.0199L8.54664 13.52ZM8.09673 13.3709C7.96714 13.2733 7.87318 13.1358 7.82931 12.9796L6.38519 13.3853C6.51793 13.8578 6.80218 14.2737 7.19425 14.5691L8.09673 13.3709ZM7.82835 12.9763L4.4346 1.10752L2.9924 1.5199L6.38615 13.3886L7.82835 12.9763ZM4.43458 1.10746C4.34489 0.793873 4.15543 0.518066 3.89491 0.321828L2.99242 1.51996L2.99242 1.51996L4.43458 1.10746ZM3.89491 0.321828C3.63438 0.12559 3.317 0.0196151 2.99083 0.0199593L2.99242 1.51996V1.51996L3.89491 0.321828ZM2.99163 0.0199589H1.41663V1.51996H2.99163V0.0199589Z" fill="white"/>
</svg>
