<svg width="22" height="22" viewBox="0 0 22 22" fill="none" xmlns="http://www.w3.org/2000/svg">
<path d="M3.96562 4.625C3.55141 4.625 3.21562 4.96079 3.21562 5.375C3.21562 5.78921 3.55141 6.125 3.96562 6.125V4.625ZM20.7844 5.375L21.5055 5.58104C21.5702 5.35475 21.5249 5.11124 21.3831 4.92335C21.2414 4.73547 21.0197 4.625 20.7844 4.625V5.375ZM18.3094 14.0375L17.5882 13.8315L17.5873 13.8347L18.3094 14.0375ZM16.8656 15.125L16.87 14.375H16.8656V15.125ZM7.88437 15.125V14.375L7.88002 14.375L7.88437 15.125ZM6.44062 14.0375L7.16269 13.8347L7.16172 13.8313L6.44062 14.0375ZM3.04688 2.16875L3.76797 1.96256L3.76796 1.9625L3.04688 2.16875ZM2.325 1.625V2.375L2.32579 2.375L2.325 1.625ZM0.75 0.875C0.335786 0.875 0 1.21079 0 1.625C0 2.03921 0.335786 2.375 0.75 2.375V0.875ZM7.5 21.125C8.74264 21.125 9.75 20.1176 9.75 18.875H8.25C8.25 19.2892 7.91421 19.625 7.5 19.625V21.125ZM9.75 18.875C9.75 17.6324 8.74264 16.625 7.5 16.625V18.125C7.91421 18.125 8.25 18.4608 8.25 18.875H9.75ZM7.5 16.625C6.25736 16.625 5.25 17.6324 5.25 18.875H6.75C6.75 18.4608 7.08579 18.125 7.5 18.125V16.625ZM5.25 18.875C5.25 20.1176 6.25736 21.125 7.5 21.125V19.625C7.08579 19.625 6.75 19.2892 6.75 18.875H5.25ZM17.25 21.125C18.4926 21.125 19.5 20.1176 19.5 18.875H18C18 19.2892 17.6642 19.625 17.25 19.625V21.125ZM19.5 18.875C19.5 17.6324 18.4926 16.625 17.25 16.625V18.125C17.6642 18.125 18 18.4608 18 18.875H19.5ZM17.25 16.625C16.0074 16.625 15 17.6324 15 18.875H16.5C16.5 18.4608 16.8358 18.125 17.25 18.125V16.625ZM15 18.875C15 20.1176 16.0074 21.125 17.25 21.125V19.625C16.8358 19.625 16.5 19.2892 16.5 18.875H15ZM3.96562 6.125H20.7844V4.625H3.96562V6.125ZM20.0632 5.16896L17.5882 13.8315L19.0305 14.2435L21.5055 5.58104L20.0632 5.16896ZM17.5873 13.8347C17.5434 13.9909 17.4495 14.1284 17.3199 14.226L18.2224 15.4241C18.6144 15.1288 18.8987 14.7129 19.0314 14.2403L17.5873 13.8347ZM17.3199 14.226C17.1903 14.3236 17.0322 14.376 16.87 14.375L16.8613 15.875C17.3521 15.8778 17.8303 15.7194 18.2224 15.4241L17.3199 14.226ZM16.8656 14.375H7.88437V15.875H16.8656V14.375ZM7.88002 14.375C7.71777 14.376 7.55971 14.3236 7.43011 14.226L6.52762 15.4241C6.91969 15.7194 7.39789 15.8778 7.88873 15.875L7.88002 14.375ZM7.43011 14.226C7.30051 14.1284 7.20656 13.9909 7.16268 13.8347L5.71857 14.2403C5.85131 14.7129 6.13555 15.1288 6.52762 15.4241L7.43011 14.226ZM7.16172 13.8313L3.76797 1.96256L2.32578 2.37494L5.71952 14.2437L7.16172 13.8313ZM3.76796 1.9625C3.67826 1.64891 3.4888 1.37311 3.22828 1.17687L2.32579 2.375L2.32579 2.375L3.76796 1.9625ZM3.22828 1.17687C2.96776 0.980631 2.65037 0.874657 2.32421 0.875001L2.32579 2.375V2.375L3.22828 1.17687ZM2.325 0.875H0.75V2.375H2.325V0.875Z" fill="#344054"/>
</svg>
