<svg width="22" height="22" viewBox="0 0 22 22" fill="none" xmlns="http://www.w3.org/2000/svg">
<path d="M10.503 1.05304L10.3589 0.31701L10.3563 0.317533L10.503 1.05304ZM2.93741 2.56241L2.79068 1.82691C2.4935 1.8862 2.2612 2.1185 2.20191 2.41568L2.93741 2.56241ZM1.42804 10.128L0.692528 9.9813L0.692015 9.98392L1.42804 10.128ZM1.63429 10.803L2.16462 10.2727L2.16406 10.2722L1.63429 10.803ZM11.4218 20.5905L11.9582 20.0663L11.9521 20.0602L11.4218 20.5905ZM12.4812 20.5905L11.9508 20.0602L11.9448 20.0663L12.4812 20.5905ZM20.9655 12.1062L20.4413 11.5697L20.4352 11.5758L20.9655 12.1062ZM20.9655 11.0468L20.4352 11.5772L20.4413 11.5832L20.9655 11.0468ZM11.178 1.25929L10.6472 1.78906L10.6477 1.78962L11.178 1.25929ZM6.87488 6.12489V5.37489H6.8748L6.87488 6.12489ZM6.63991 6.20768L6.1696 5.62346L6.63991 6.20768ZM6.87491 6.49991L6.29045 6.96992L6.51562 7.24991H6.87491V6.49991ZM10.3563 0.317533L2.79068 1.82691L3.08415 3.29792L10.6498 1.78854L10.3563 0.317533ZM2.20191 2.41568L0.692533 9.9813L2.16354 10.2748L3.67292 2.70915L2.20191 2.41568ZM0.692015 9.98392C0.64471 10.2255 0.657596 10.475 0.729535 10.7105L2.16406 10.2722L2.16406 10.2722L0.692015 9.98392ZM0.729535 10.7105C0.801475 10.9459 0.930256 11.16 1.10451 11.3339L2.16406 10.2722V10.2722L0.729535 10.7105ZM1.10396 11.3334L10.8915 21.1209L11.9521 20.0602L2.16462 10.2727L1.10396 11.3334ZM10.8854 21.1147C11.0242 21.2568 11.1901 21.3697 11.3731 21.4468L11.9551 20.0643C11.9563 20.0647 11.9573 20.0654 11.9582 20.0663L10.8854 21.1147ZM11.3731 21.4468C11.5562 21.5238 11.7528 21.5635 11.9515 21.5635V20.0635C11.9527 20.0635 11.954 20.0638 11.9551 20.0643L11.3731 21.4468ZM11.9515 21.5635C12.1501 21.5635 12.3467 21.5238 12.5298 21.4468L11.9478 20.0643C11.949 20.0638 11.9502 20.0635 11.9515 20.0635V21.5635ZM12.5298 21.4468C12.7129 21.3697 12.8787 21.2568 13.0176 21.1147L11.9448 20.0663C11.9456 20.0654 11.9467 20.0647 11.9478 20.0643L12.5298 21.4468ZM13.0115 21.1209L21.4959 12.6365L20.4352 11.5758L11.9508 20.0602L13.0115 21.1209ZM21.4897 12.6426C21.6318 12.5037 21.7447 12.3379 21.8218 12.1548L20.4393 11.5728C20.4397 11.5717 20.4404 11.5706 20.4413 11.5698L21.4897 12.6426ZM21.8218 12.1548C21.8988 11.9717 21.9385 11.7751 21.9385 11.5765H20.4385C20.4385 11.5752 20.4388 11.574 20.4393 11.5728L21.8218 12.1548ZM21.9385 11.5765C21.9385 11.3778 21.8988 11.1812 21.8218 10.9981L20.4393 11.5801C20.4388 11.579 20.4385 11.5777 20.4385 11.5765H21.9385ZM21.8218 10.9981C21.7447 10.8151 21.6318 10.6492 21.4897 10.5104L20.4413 11.5832C20.4404 11.5823 20.4397 11.5813 20.4393 11.5801L21.8218 10.9981ZM21.4959 10.5165L11.7084 0.728959L10.6477 1.78962L20.4352 11.5771L21.4959 10.5165ZM11.7089 0.729515C11.535 0.555256 11.3209 0.426475 11.0855 0.354535L10.6472 1.78906H10.6472L11.7089 0.729515ZM11.0855 0.354535C10.85 0.282596 10.6005 0.26971 10.3589 0.317015L10.6472 1.78906L10.6472 1.78906L11.0855 0.354535ZM7.24991 6.49991C7.24991 6.70702 7.08202 6.87491 6.87491 6.87491V8.37491C7.91045 8.37491 8.74991 7.53545 8.74991 6.49991H7.24991ZM6.87491 6.87491C6.66781 6.87491 6.49991 6.70702 6.49991 6.49991H4.99991C4.99991 7.53545 5.83938 8.37491 6.87491 8.37491V6.87491ZM6.49991 6.49991C6.49991 6.29281 6.66781 6.12491 6.87491 6.12491V4.62491C5.83938 4.62491 4.99991 5.46438 4.99991 6.49991H6.49991ZM6.87491 6.12491C7.08202 6.12491 7.24991 6.29281 7.24991 6.49991H8.74991C8.74991 5.46438 7.91045 4.62491 6.87491 4.62491V6.12491ZM6.87491 6.12491C7.08192 6.12491 7.24988 6.29271 7.24988 6.49991H5.74988C5.74988 7.12134 6.2537 7.62491 6.87491 7.62491V6.12491ZM6.49991 6.49991C6.49991 6.29281 6.66781 6.12491 6.87491 6.12491V7.62491C7.49623 7.62491 7.99991 7.12123 7.99991 6.49991H6.49991ZM6.87488 6.87489C6.6678 6.87489 6.49991 6.70706 6.49991 6.49991H7.99991C7.99991 5.87856 7.49616 5.37489 6.87488 5.37489V6.87489ZM6.34455 6.65523L6.71959 7.03025L7.78023 5.96957L7.4052 5.59455L6.34455 6.65523ZM6.8748 5.37489C6.60841 5.37492 6.36211 5.46848 6.1696 5.62346L7.11021 6.7919C7.04631 6.84334 6.96341 6.87488 6.87495 6.87489L6.8748 5.37489ZM6.1696 5.62346C5.91504 5.82839 5.74988 6.14508 5.74988 6.49991H7.24988C7.24988 6.6185 7.194 6.72444 7.11021 6.7919L6.1696 5.62346ZM6.05545 6.67769C6.14945 6.79458 6.2082 6.86764 6.24345 6.91147C6.26108 6.93339 6.27283 6.948 6.28017 6.95714C6.28384 6.9617 6.28642 6.9649 6.28807 6.96695C6.28889 6.96798 6.28949 6.96872 6.28988 6.96921C6.29008 6.96945 6.29022 6.96963 6.29031 6.96975C6.29036 6.9698 6.2904 6.96985 6.29042 6.96988C6.29043 6.96989 6.29044 6.9699 6.29045 6.96991C6.29045 6.96991 6.29045 6.96992 6.29045 6.96992C6.29045 6.96992 6.29045 6.96992 6.29045 6.96992C6.29045 6.96992 6.29045 6.96992 6.87491 6.49991C7.45937 6.02991 7.45937 6.02991 7.45937 6.02991C7.45937 6.02991 7.45937 6.02991 7.45937 6.0299C7.45937 6.0299 7.45937 6.0299 7.45937 6.0299C7.45936 6.02989 7.45935 6.02988 7.45934 6.02986C7.45932 6.02984 7.45928 6.02979 7.45923 6.02973C7.45914 6.02961 7.459 6.02944 7.4588 6.02919C7.45841 6.02871 7.45781 6.02797 7.45699 6.02694C7.45534 6.02488 7.45276 6.02169 7.44909 6.01712C7.44175 6.00799 7.43 5.99338 7.41237 5.97146C7.37712 5.92762 7.31837 5.85457 7.22436 5.73767L6.05545 6.67769ZM6.87491 7.24991H7.24991V5.74991H6.87491V7.24991Z" fill="#344054"/>
</svg>
