<svg width="24" height="25" viewBox="0 0 24 25" fill="none" xmlns="http://www.w3.org/2000/svg">
<g filter="url(#filter0_d_474_685)">
<path d="M12.001 9.8396C11.2053 9.8396 10.4423 10.1557 9.87966 10.7183C9.31705 11.2809 9.00098 12.044 9.00098 12.8396C9.00098 13.6352 9.31705 14.3983 9.87966 14.9609C10.4423 15.5235 11.2053 15.8396 12.001 15.8396C12.7966 15.8396 13.5597 15.5235 14.1223 14.9609C14.6849 14.3983 15.001 13.6352 15.001 12.8396C15.001 12.044 14.6849 11.2809 14.1223 10.7183C13.5597 10.1557 12.7966 9.8396 12.001 9.8396ZM12.001 7.8396C13.3271 7.8396 14.5988 8.36638 15.5365 9.30407C16.4742 10.2417 17.001 11.5135 17.001 12.8396C17.001 14.1657 16.4742 15.4375 15.5365 16.3751C14.5988 17.3128 13.3271 17.8396 12.001 17.8396C10.6749 17.8396 9.40312 17.3128 8.46544 16.3751C7.52776 15.4375 7.00098 14.1657 7.00098 12.8396C7.00098 11.5135 7.52776 10.2417 8.46544 9.30407C9.40312 8.36638 10.6749 7.8396 12.001 7.8396ZM18.501 7.5896C18.501 7.92112 18.3693 8.23906 18.1349 8.47348C17.9004 8.7079 17.5825 8.8396 17.251 8.8396C16.9195 8.8396 16.6015 8.7079 16.3671 8.47348C16.1327 8.23906 16.001 7.92112 16.001 7.5896C16.001 7.25808 16.1327 6.94014 16.3671 6.70572C16.6015 6.4713 16.9195 6.3396 17.251 6.3396C17.5825 6.3396 17.9004 6.4713 18.1349 6.70572C18.3693 6.94014 18.501 7.25808 18.501 7.5896ZM12.001 4.8396C9.52698 4.8396 9.12298 4.8466 7.97198 4.8976C7.18798 4.9346 6.66198 5.0396 6.17398 5.2296C5.76559 5.37954 5.39639 5.61986 5.09398 5.9326C4.78098 6.235 4.54033 6.60418 4.38998 7.0126C4.19998 7.5026 4.09498 8.0276 4.05898 8.8106C4.00698 9.9146 3.99998 10.3006 3.99998 12.8396C3.99998 15.3146 4.00698 15.7176 4.05798 16.8686C4.09498 17.6516 4.19998 18.1786 4.38898 18.6656C4.55898 19.1006 4.75898 19.4136 5.09098 19.7456C5.42798 20.0816 5.74098 20.2826 6.17098 20.4486C6.66498 20.6396 7.19098 20.7456 7.97098 20.7816C9.07498 20.8336 9.46098 20.8396 12 20.8396C14.475 20.8396 14.878 20.8326 16.029 20.7816C16.811 20.7446 17.337 20.6396 17.826 20.4506C18.234 20.2999 18.603 20.0597 18.906 19.7476C19.243 19.4116 19.444 19.0986 19.61 18.6676C19.8 18.1756 19.906 17.6496 19.942 16.8676C19.994 15.7646 20 15.3776 20 12.8396C20 10.3656 19.993 9.9616 19.942 8.8106C19.905 8.0286 19.799 7.5006 19.61 7.0126C19.4592 6.60462 19.219 6.23558 18.907 5.9326C18.6047 5.61945 18.2355 5.37877 17.827 5.2286C17.337 5.0386 16.811 4.9336 16.029 4.8976C14.926 4.8456 14.541 4.8396 12.001 4.8396ZM12.001 2.8396C14.718 2.8396 15.057 2.8496 16.124 2.8996C17.188 2.9496 17.914 3.1166 18.551 3.3646C19.211 3.6186 19.767 3.9626 20.323 4.5176C20.8315 5.0175 21.2249 5.62219 21.476 6.2896C21.723 6.9266 21.891 7.6526 21.941 8.7176C21.988 9.7836 22.001 10.1226 22.001 12.8396C22.001 15.5566 21.991 15.8956 21.941 16.9616C21.891 18.0266 21.723 18.7516 21.476 19.3896C21.2256 20.0574 20.8321 20.6622 20.323 21.1616C19.8229 21.6699 19.2183 22.0634 18.551 22.3146C17.914 22.5616 17.188 22.7296 16.124 22.7796C15.057 22.8266 14.718 22.8396 12.001 22.8396C9.28398 22.8396 8.94498 22.8296 7.87798 22.7796C6.81398 22.7296 6.08898 22.5616 5.45098 22.3146C4.7833 22.0641 4.1785 21.6705 3.67898 21.1616C3.17041 20.6618 2.77694 20.0571 2.52598 19.3896C2.27798 18.7526 2.11098 18.0266 2.06098 16.9616C2.01298 15.8956 2.00098 15.5566 2.00098 12.8396C2.00098 10.1226 2.01098 9.7836 2.06098 8.7176C2.11098 7.6516 2.27798 6.9276 2.52598 6.2896C2.77621 5.62178 3.16978 5.01692 3.67898 4.5176C4.17865 4.00883 4.78341 3.61533 5.45098 3.3646C6.08798 3.1166 6.81298 2.9496 7.87798 2.8996C8.94498 2.8526 9.28398 2.8396 12.001 2.8396Z" fill="#344054"/>
</g>
<defs>
<filter id="filter0_d_474_685" x="-17.999" y="-2.1604" width="60" height="60" filterUnits="userSpaceOnUse" color-interpolation-filters="sRGB">
<feFlood flood-opacity="0" result="BackgroundImageFix"/>
<feColorMatrix in="SourceAlpha" type="matrix" values="0 0 0 0 0 0 0 0 0 0 0 0 0 0 0 0 0 0 127 0" result="hardAlpha"/>
<feOffset dy="15"/>
<feGaussianBlur stdDeviation="10"/>
<feColorMatrix type="matrix" values="0 0 0 0 0 0 0 0 0 0 0 0 0 0 0 0 0 0 0.04 0"/>
<feBlend mode="normal" in2="BackgroundImageFix" result="effect1_dropShadow_474_685"/>
<feBlend mode="normal" in="SourceGraphic" in2="effect1_dropShadow_474_685" result="shape"/>
</filter>
</defs>
</svg>
