<svg width="74" height="75" viewBox="0 0 74 75" fill="none" xmlns="http://www.w3.org/2000/svg">
<g id="EcoApp 1" clip-path="url(#clip0_104_640)">
<g id="Clip path group">
<mask id="mask0_104_640" style="mask-type:luminance" maskUnits="userSpaceOnUse" x="0" y="0" width="74" height="75">
<g id="clip0_56_555">
<path id="Vector" d="M57.424 0.3396H16.576C7.42133 0.3396 0 7.76093 0 16.9156V57.7636C0 66.9183 7.42133 74.3396 16.576 74.3396H57.424C66.5787 74.3396 74 66.9183 74 57.7636V16.9156C74 7.76093 66.5787 0.3396 57.424 0.3396Z" fill="white"/>
</g>
</mask>
<g mask="url(#mask0_104_640)">
<g id="Group">
<path id="Vector_2" d="M74 0.3396H0V74.3396H74V0.3396Z" fill="white"/>
<g id="Group_2" filter="url(#filter0_d_104_640)">
<path id="Vector_3" d="M57.1334 15.2435L55.1881 22.7679H35.8011L34.3802 28.3256H53.0809L51.1669 35.4239H32.5041L30.7132 42.2748H51.7512L49.6714 50.24H16.8665L25.9207 15.2473L57.1334 15.2435Z" fill="#E1251B"/>
</g>
<path id="Vector_4" d="M74 55.5703H0V74.3396H74V55.5703Z" fill="#143F85"/>
</g>
</g>
</g>
<path id="Vector_5" d="M57.424 0.93158H16.576C7.74832 0.93158 0.592041 8.08786 0.592041 16.9156V57.7636C0.592041 66.5913 7.74832 73.7476 16.576 73.7476H57.424C66.2518 73.7476 73.408 66.5913 73.408 57.7636V16.9156C73.408 8.08786 66.2518 0.93158 57.424 0.93158Z" stroke="#E4E7EC" stroke-width="1.184"/>
</g>
<defs>
<filter id="filter0_d_104_640" x="16.8665" y="15.2435" width="40.3068" height="35.0365" filterUnits="userSpaceOnUse" color-interpolation-filters="sRGB">
<feFlood flood-opacity="0" result="BackgroundImageFix"/>
<feColorMatrix in="SourceAlpha" type="matrix" values="0 0 0 0 0 0 0 0 0 0 0 0 0 0 0 0 0 0 127 0" result="hardAlpha"/>
<feOffset dx="0.03996" dy="0.03996"/>
<feColorMatrix type="matrix" values="0 0 0 0 0.0705882 0 0 0 0 0.0627451 0 0 0 0 0.0470588 0 0 0 0.2 0"/>
<feBlend mode="normal" in2="BackgroundImageFix" result="effect1_dropShadow_104_640"/>
<feBlend mode="normal" in="SourceGraphic" in2="effect1_dropShadow_104_640" result="shape"/>
</filter>
<clipPath id="clip0_104_640">
<rect width="74" height="74" fill="white" transform="translate(0 0.3396)"/>
</clipPath>
</defs>
</svg>
