<svg width="20" height="20" viewBox="0 0 20 20" fill="none" xmlns="http://www.w3.org/2000/svg">
<path d="M0.256696 18.5C0.0496227 18.8588 0.172571 19.3175 0.53131 19.5245C0.890048 19.7316 1.34873 19.6087 1.5558 19.2499L0.256696 18.5ZM18.4442 19.2499C18.6513 19.6087 19.11 19.7316 19.4687 19.5245C19.8274 19.3175 19.9504 18.8588 19.7433 18.5L18.4442 19.2499ZM15.25 7.625C15.25 10.5245 12.8995 12.875 10 12.875V14.375C13.7279 14.375 16.75 11.3529 16.75 7.625H15.25ZM10 12.875C7.1005 12.875 4.75 10.5245 4.75 7.625H3.25C3.25 11.3529 6.27208 14.375 10 14.375V12.875ZM4.75 7.625C4.75 4.7255 7.1005 2.375 10 2.375V0.875C6.27208 0.875 3.25 3.89708 3.25 7.625H4.75ZM10 2.375C12.8995 2.375 15.25 4.7255 15.25 7.625H16.75C16.75 3.89708 13.7279 0.875 10 0.875V2.375ZM1.5558 19.2499C2.41148 17.7675 3.64233 16.5365 5.12461 15.6806L4.37455 14.3816C2.66423 15.3692 1.24402 16.7896 0.256696 18.5L1.5558 19.2499ZM5.12461 15.6806C6.60669 14.8249 8.28813 14.375 10 14.375V12.875C8.02527 12.875 6.08508 13.3939 4.37455 14.3816L5.12461 15.6806ZM10 14.375C11.7119 14.375 13.3933 14.8249 14.8754 15.6806L15.6254 14.3816C13.9149 13.3939 11.9747 12.875 10 12.875V14.375ZM14.8754 15.6806C16.3577 16.5365 17.5885 17.7675 18.4442 19.2499L19.7433 18.5C18.756 16.7896 17.3358 15.3692 15.6254 14.3816L14.8754 15.6806Z" fill="#344054"/>
</svg>
