<svg width="24" height="25" viewBox="0 0 24 25" fill="none" xmlns="http://www.w3.org/2000/svg">
<g filter="url(#filter0_d_474_683)">
<path d="M19.607 7.8346C19.531 7.5366 19.315 7.3116 19.068 7.2426C18.63 7.1196 16.501 6.8396 12.001 6.8396C7.501 6.8396 5.373 7.1196 4.932 7.2426C4.688 7.3106 4.472 7.5356 4.395 7.8346C4.286 8.2586 4.001 10.0346 4.001 12.8396C4.001 15.6436 4.286 17.4196 4.395 17.8456C4.471 18.1426 4.687 18.3676 4.933 18.4356C5.373 18.5596 7.5 18.8396 12 18.8396C16.5 18.8396 18.629 18.5596 19.069 18.4366C19.313 18.3686 19.529 18.1436 19.606 17.8446C19.716 17.4206 20 15.6396 20 12.8396C20 10.0396 19.716 8.2596 19.607 7.8346ZM21.544 7.3376C22.001 9.1196 22.001 12.8396 22.001 12.8396C22.001 12.8396 22.001 16.5596 21.544 18.3416C21.29 19.3266 20.547 20.1016 19.606 20.3636C17.897 20.8396 12 20.8396 12 20.8396C12 20.8396 6.107 20.8396 4.395 20.3636C3.45 20.0976 2.708 19.3236 2.457 18.3416C2 16.5596 2 12.8396 2 12.8396C2 12.8396 2 9.1196 2.457 7.3376C2.711 6.3526 3.454 5.5776 4.395 5.3156C6.108 4.8396 12.001 4.8396 12.001 4.8396C12.001 4.8396 17.897 4.8396 19.606 5.3156C20.55 5.5816 21.293 6.3556 21.544 7.3376ZM10.001 16.3396V9.3396L16.001 12.8396L10.001 16.3396Z" fill="#344054"/>
</g>
<defs>
<filter id="filter0_d_474_683" x="-18" y="-0.1604" width="60.001" height="56" filterUnits="userSpaceOnUse" color-interpolation-filters="sRGB">
<feFlood flood-opacity="0" result="BackgroundImageFix"/>
<feColorMatrix in="SourceAlpha" type="matrix" values="0 0 0 0 0 0 0 0 0 0 0 0 0 0 0 0 0 0 127 0" result="hardAlpha"/>
<feOffset dy="15"/>
<feGaussianBlur stdDeviation="10"/>
<feColorMatrix type="matrix" values="0 0 0 0 0 0 0 0 0 0 0 0 0 0 0 0 0 0 0.04 0"/>
<feBlend mode="normal" in2="BackgroundImageFix" result="effect1_dropShadow_474_683"/>
<feBlend mode="normal" in="SourceGraphic" in2="effect1_dropShadow_474_683" result="shape"/>
</filter>
</defs>
</svg>
