<svg width="18" height="22" viewBox="0 0 18 22" fill="none" xmlns="http://www.w3.org/2000/svg">
<path d="M9 11.375C10.6569 11.375 12 10.0319 12 8.375C12 6.71815 10.6569 5.375 9 5.375C7.34315 5.375 6 6.71815 6 8.375C6 10.0319 7.34315 11.375 9 11.375Z" stroke="#344054" stroke-width="1.5" stroke-linecap="round" stroke-linejoin="round"/>
<path d="M16.5 8.375C16.5 15.125 9 20.375 9 20.375C9 20.375 1.5 15.125 1.5 8.375C1.5 6.38588 2.29018 4.47822 3.6967 3.0717C5.10322 1.66518 7.01088 0.875 9 0.875C10.9891 0.875 12.8968 1.66518 14.3033 3.0717C15.7098 4.47822 16.5 6.38588 16.5 8.375Z" stroke="#344054" stroke-width="1.5" stroke-linecap="round" stroke-linejoin="round"/>
</svg>
