<?xml version="1.0" encoding="utf-8"?>
<!-- Generator: Adobe Illustrator 28.2.0, SVG Export Plug-In . SVG Version: 6.00 Build 0)  -->
<svg version="1.1" id="Capa_1" xmlns="http://www.w3.org/2000/svg" xmlns:xlink="http://www.w3.org/1999/xlink" x="0px" y="0px"
	 viewBox="0 0 187 43.3" style="enable-background:new 0 0 187 43.3;" xml:space="preserve">
<style type="text/css">
	.st0{clip-path:url(#SVGID_00000088123848736878304800000005763246478341646472_);}
	.st1{fill:#FFFFFF;}
	.st2{fill:#E1251B;}
	.st3{fill:#1A428A;}
	.st4{fill:#FFE800;}
</style>
<g>
	<defs>
		<rect id="SVGID_1_" y="0.8" width="187" height="42.5"/>
	</defs>
	<clipPath id="SVGID_00000160891913490414236060000003335286018165664139_">
		<use xlink:href="#SVGID_1_"  style="overflow:visible;"/>
	</clipPath>
	<g style="clip-path:url(#SVGID_00000160891913490414236060000003335286018165664139_);">
		<path class="st1" d="M187,0.8H0v25.9h187V0.8z"/>
		<path class="st1" d="M187,0.8H0v25.9h187V0.8z"/>
		<path class="st2" d="M23.1,18.1l-1,3.9H8l4.1-15.8h5.5l-3.2,11.9H23.1z"/>
		<path class="st2" d="M26.1,13.7c0.3-1.1,1-1.9,2.1-2.5c1.1-0.6,2.7-0.9,4.9-0.9c2.5,0,4.2,0.3,5,0.8c0.9,0.6,1.3,1.4,1.2,2.5
			c0,0.7-0.3,1.9-0.7,3.5c-0.5,1.6-0.7,2.6-0.7,3.2c0,0.5,0.1,1,0.3,1.6h-4.7c-0.1-0.5-0.1-0.9-0.1-1.3c-1.3,1-2.7,1.6-4.3,1.6
			c-1.6,0-2.7-0.3-3.4-1c-0.7-0.7-1-1.5-1-2.3c0-1,0.4-1.8,1-2.3c0.6-0.5,1.4-0.9,2.3-1.1c0.9-0.2,2.2-0.4,3.8-0.5
			c1.4-0.1,2.3-0.3,2.8-0.4c0.1-0.3,0.2-0.6,0.2-0.8c0-0.3-0.2-0.5-0.5-0.7c-0.3-0.2-0.7-0.3-1.3-0.3c-0.5,0-1,0.1-1.4,0.2
			c-0.4,0.2-0.7,0.5-0.9,1L26.1,13.7L26.1,13.7z M33.9,16.9c-2.2,0.3-3.6,0.6-4,0.9c-0.4,0.3-0.6,0.6-0.6,0.9c0,0.4,0.1,0.7,0.4,0.9
			c0.3,0.2,0.6,0.3,1.1,0.3c0.6,0,1.2-0.2,1.8-0.7C33.2,18.7,33.6,17.9,33.9,16.9"/>
		<path class="st2" d="M67.1,6.2l-0.9,3.4h-8.9l-0.7,2.5h8.6l-0.9,3.2h-8.5L55,18.4h9.6l-1,3.6h-15l4.1-15.8H67.1z"/>
		<path class="st2" d="M82,14.5l-4.4,0.2c-0.2-1-0.9-1.5-2.2-1.5c-1.2,0-2.1,0.4-2.8,1.3c-0.7,0.9-1,1.8-1,2.8
			c0,0.6,0.2,1.1,0.6,1.4c0.4,0.3,0.9,0.5,1.5,0.5c1.3,0,2.3-0.6,2.9-1.9l4.5,0.4c-1.2,3-3.8,4.5-7.7,4.5c-4.5,0-6.6-1.7-6.6-4.9
			c0-1.9,0.8-3.6,2.3-4.9c1.5-1.4,3.6-2.1,6.3-2.1c1.9,0,3.4,0.4,4.6,1.1C81.2,12.1,81.8,13.1,82,14.5"/>
		<path class="st2" d="M91.3,10.3c2.3,0,3.9,0.5,4.9,1.5c1,1,1.5,2.2,1.5,3.6c0,1.1-0.4,2.1-1,3.2c-0.6,1.1-1.5,2-2.8,2.6
			c-1.2,0.6-2.7,1-4.4,1c-2.2,0-3.8-0.5-4.9-1.5c-1-1-1.5-2.2-1.5-3.7c0-1.2,0.4-2.3,1-3.4c0.7-1.1,1.6-1.9,2.8-2.5
			C88.2,10.6,89.7,10.3,91.3,10.3 M89.9,19.3c0.9,0,1.6-0.4,2.2-1.3c0.5-0.8,0.8-1.8,0.9-2.8c0-0.7-0.2-1.3-0.6-1.6
			c-0.4-0.3-0.8-0.4-1.3-0.4c-1,0-1.8,0.4-2.3,1.3c-0.5,0.8-0.8,1.7-0.8,2.6c0,0.6,0.2,1.2,0.6,1.6C88.8,19.1,89.3,19.3,89.9,19.3z"
			/>
		<path class="st2" d="M105.7,12.3c1.4-1.4,3-2,4.9-2c1.1,0,2,0.3,2.6,0.8c0.6,0.5,0.8,1.2,0.8,1.9c0,0.5-0.2,1.4-0.5,2.7l-1.6,6.2
			H107l1.4-5.3c0.3-1.3,0.5-2,0.5-2.2c0-0.6-0.3-0.9-0.9-0.9c-0.7,0-1.3,0.3-1.9,0.9c-0.5,0.6-1,1.5-1.3,2.6l-1.3,4.9h-4.9l3-11.4
			h4.5L105.7,12.3L105.7,12.3L105.7,12.3z"/>
		<path class="st2" d="M123.9,10.3c2.3,0,3.9,0.5,4.9,1.6c1,1,1.5,2.2,1.5,3.6c0,1.1-0.4,2.1-1,3.2c-0.6,1.1-1.5,2-2.8,2.6
			c-1.2,0.6-2.7,1-4.4,1c-2.2,0-3.8-0.5-4.9-1.5c-1-1-1.5-2.2-1.5-3.7c0-1.2,0.4-2.3,1-3.4c0.7-1.1,1.6-1.9,2.8-2.5
			C120.8,10.6,122.2,10.3,123.9,10.3 M122.5,19.3c0.9,0,1.6-0.4,2.2-1.3c0.6-0.8,0.8-1.8,0.9-2.8c0-0.7-0.2-1.3-0.6-1.6
			c-0.4-0.3-0.8-0.4-1.3-0.4c-1,0-1.8,0.4-2.3,1.3c-0.5,0.8-0.8,1.7-0.8,2.6c0,0.6,0.2,1.2,0.6,1.6
			C121.4,19.1,121.9,19.3,122.5,19.3z"/>
		<path class="st2" d="M146.4,12.2c0.9-0.7,1.8-1.3,2.6-1.5c0.8-0.3,1.6-0.4,2.4-0.4c1.1,0,2,0.3,2.6,0.8c0.6,0.5,0.8,1.2,0.8,2
			c0,0.5-0.1,0.9-0.2,1.4l-2,7.5h-4.9l1.3-4.9c0.3-1.2,0.5-2,0.5-2.2c0-0.2,0.1-0.4,0.1-0.5c0-0.6-0.3-0.9-0.9-0.9
			c-0.7,0-1.3,0.3-1.8,0.8c-0.5,0.5-0.9,1.4-1.2,2.6l-1.3,5.1h-4.9l1.3-4.8c0.3-1.3,0.5-2,0.6-2.3c0-0.2,0.1-0.4,0.1-0.5
			c0-0.6-0.3-0.9-1-0.9c-0.5,0-1,0.2-1.6,0.7c-0.6,0.5-1,1.2-1.3,2.3l-1.5,5.5h-4.9l3-11.4h4.5l-0.4,1.6l0,0c1.4-1.3,3-1.9,4.7-1.9
			c0.8,0,1.5,0.2,2.1,0.5C145.8,11.1,146.2,11.6,146.4,12.2"/>
		<path class="st2" d="M163.6,10.5l-3,11.4h-4.9l3-11.4H163.6L163.6,10.5z M165.9,5.9l-4.4,3.2h-2.4l2.7-3.2H165.9L165.9,5.9z"/>
		<path class="st2" d="M165.8,13.7c0.3-1.1,1-1.9,2.1-2.5c1.1-0.6,2.7-0.9,4.9-0.9c2.5,0,4.2,0.3,5,0.8c0.9,0.6,1.3,1.4,1.2,2.5
			c0,0.7-0.3,1.9-0.7,3.5c-0.4,1.6-0.7,2.6-0.7,3.2c0,0.5,0.1,1,0.3,1.6h-4.7c-0.1-0.5-0.1-0.9-0.1-1.3c-1.3,1-2.7,1.6-4.3,1.6
			c-1.6,0-2.7-0.3-3.4-1c-0.7-0.7-1-1.5-1-2.3c0-1,0.4-1.8,1-2.3c0.6-0.5,1.4-0.9,2.3-1.1c0.9-0.2,2.2-0.4,3.8-0.5
			c1.4-0.1,2.4-0.3,2.8-0.4c0.1-0.3,0.2-0.6,0.2-0.8c0-0.3-0.1-0.5-0.5-0.7c-0.3-0.2-0.7-0.3-1.3-0.3c-0.5,0-1,0.1-1.4,0.2
			c-0.4,0.2-0.7,0.5-0.9,1L165.8,13.7L165.8,13.7z M173.6,16.9c-2.2,0.3-3.6,0.6-4,0.9c-0.4,0.3-0.6,0.6-0.6,0.9
			c0,0.4,0.1,0.7,0.4,0.9c0.3,0.2,0.6,0.3,1.1,0.3c0.6,0,1.2-0.2,1.8-0.7C173,18.7,173.4,17.9,173.6,16.9z"/>
		<path class="st3" d="M187,26.7H0v16.6h187V26.7z"/>
		<path class="st4" d="M62,29.7h3.8c0.8,0,1.4,0.1,1.8,0.3c0.5,0.2,0.9,0.5,1.2,0.9c0.3,0.4,0.5,0.8,0.7,1.3c0.1,0.5,0.2,1,0.2,1.6
			c0,0.9-0.1,1.6-0.3,2c-0.2,0.5-0.5,0.9-0.8,1.2c-0.4,0.3-0.7,0.5-1.2,0.7c-0.6,0.1-1.1,0.2-1.5,0.2H62V29.7L62,29.7z M64.6,31.6
			v4.5h0.6c0.5,0,0.9-0.1,1.2-0.2c0.2-0.1,0.4-0.3,0.5-0.6c0.1-0.3,0.2-0.8,0.2-1.4c0-0.9-0.1-1.5-0.4-1.8c-0.3-0.3-0.8-0.5-1.4-0.5
			H64.6z"/>
		<path class="st4" d="M71.2,32h2.2v1c0.2-0.4,0.4-0.7,0.6-0.9c0.2-0.2,0.5-0.2,0.8-0.2c0.3,0,0.7,0.1,1.1,0.3l-0.7,1.6
			c-0.3-0.1-0.5-0.2-0.7-0.2c-0.3,0-0.5,0.1-0.7,0.4c-0.2,0.3-0.4,1-0.4,2v2h-2.3V32z"/>
		<path class="st4" d="M76.5,35c0-0.9,0.3-1.7,0.9-2.2c0.6-0.6,1.5-0.9,2.5-0.9c1.2,0,2.1,0.3,2.7,1c0.5,0.6,0.7,1.2,0.7,2.1
			c0,0.9-0.3,1.7-0.9,2.3c-0.6,0.6-1.5,0.9-2.6,0.9c-1,0-1.8-0.2-2.4-0.7C76.8,36.8,76.5,36,76.5,35 M78.8,35c0,0.5,0.1,0.9,0.3,1.2
			c0.2,0.3,0.5,0.4,0.8,0.4c0.3,0,0.6-0.1,0.8-0.4c0.2-0.3,0.3-0.7,0.3-1.2c0-0.5-0.1-0.9-0.3-1.2c-0.2-0.3-0.5-0.4-0.8-0.4
			c-0.3,0-0.6,0.1-0.8,0.4C78.9,34.1,78.8,34.5,78.8,35z"/>
		<path class="st4" d="M89,32h2.2v5.9c0,0.4-0.1,0.7-0.2,1.1c-0.2,0.3-0.4,0.6-0.6,0.8c-0.3,0.2-0.6,0.4-1,0.5
			c-0.4,0.1-0.9,0.1-1.4,0.1c-1.2,0-2-0.2-2.5-0.5c-0.5-0.4-0.7-0.8-0.7-1.4c0-0.1,0-0.2,0-0.3l2.3,0.3c0.1,0.2,0.1,0.3,0.3,0.4
			c0.2,0.1,0.4,0.2,0.6,0.2c0.3,0,0.6-0.1,0.8-0.3c0.2-0.2,0.2-0.5,0.2-0.9v-0.9c-0.2,0.3-0.5,0.5-0.7,0.6c-0.4,0.2-0.7,0.3-1.2,0.3
			c-0.8,0-1.5-0.3-2-1c-0.4-0.5-0.5-1.1-0.5-2c0-0.9,0.2-1.6,0.7-2.1c0.5-0.5,1.1-0.7,1.8-0.7c0.5,0,0.9,0.1,1.2,0.2
			c0.3,0.2,0.6,0.4,0.9,0.8L89,32L89,32z M86.8,34.9c0,0.4,0.1,0.7,0.3,1c0.2,0.2,0.4,0.3,0.7,0.3c0.3,0,0.5-0.1,0.7-0.3
			c0.2-0.2,0.3-0.5,0.3-1c0-0.4-0.1-0.8-0.3-1c-0.2-0.2-0.5-0.3-0.8-0.3c-0.3,0-0.5,0.1-0.7,0.3C86.9,34.1,86.8,34.4,86.8,34.9"/>
		<path class="st4" d="M99.2,38H97v-1c-0.3,0.4-0.6,0.7-1,0.8c-0.3,0.2-0.7,0.3-1.2,0.3c-0.6,0-1.1-0.2-1.5-0.6
			c-0.4-0.4-0.5-1-0.5-1.7V32h2.3v3.3c0,0.4,0.1,0.6,0.2,0.8s0.3,0.2,0.6,0.2c0.3,0,0.5-0.1,0.7-0.3c0.2-0.2,0.3-0.6,0.3-1.1V32h2.3
			L99.2,38L99.2,38z"/>
		<path class="st4" d="M107.6,35.6h-4.7c0,0.4,0.1,0.6,0.3,0.8c0.2,0.3,0.5,0.4,0.9,0.4c0.2,0,0.4-0.1,0.7-0.2
			c0.1-0.1,0.3-0.2,0.4-0.4l2.3,0.2c-0.4,0.6-0.8,1-1.3,1.3c-0.5,0.3-1.2,0.4-2.1,0.4c-0.8,0-1.4-0.1-1.9-0.3
			c-0.5-0.2-0.8-0.6-1.1-1.1c-0.3-0.5-0.5-1.1-0.5-1.7c0-0.9,0.3-1.7,0.9-2.3c0.6-0.6,1.4-0.9,2.5-0.9c0.9,0,1.5,0.1,2.1,0.4
			c0.5,0.3,0.9,0.6,1.1,1.1c0.3,0.5,0.4,1.1,0.4,1.9L107.6,35.6L107.6,35.6z M105.2,34.5c0-0.4-0.2-0.8-0.4-0.9
			c-0.2-0.2-0.5-0.3-0.8-0.3c-0.4,0-0.7,0.1-0.9,0.4c-0.1,0.2-0.2,0.4-0.3,0.8H105.2z"/>
		<path class="st4" d="M108.9,32h2.2v1c0.2-0.4,0.4-0.7,0.6-0.9c0.2-0.2,0.5-0.2,0.8-0.2c0.3,0,0.7,0.1,1.1,0.3l-0.7,1.6
			c-0.3-0.1-0.5-0.2-0.7-0.2c-0.3,0-0.5,0.1-0.7,0.4c-0.2,0.3-0.4,1-0.4,2v2h-2.3L108.9,32L108.9,32z"/>
		<path class="st4" d="M114.4,32h2.3v6h-2.3V32z M115.5,29.6h2l-1.8,1.7h-1.1L115.5,29.6z"/>
		<path class="st4" d="M120.5,33.9l-2.2-0.2c0.1-0.4,0.2-0.7,0.4-0.9c0.2-0.2,0.4-0.4,0.7-0.6c0.2-0.1,0.5-0.2,0.9-0.3
			c0.4-0.1,0.8-0.1,1.2-0.1c0.7,0,1.3,0,1.7,0.1c0.4,0.1,0.8,0.2,1.1,0.5c0.2,0.2,0.4,0.4,0.5,0.7c0.1,0.3,0.2,0.6,0.2,0.9v2.6
			c0,0.3,0,0.5,0.1,0.7c0,0.2,0.1,0.4,0.2,0.6h-2.2c-0.1-0.2-0.1-0.3-0.2-0.4c0-0.1-0.1-0.2-0.1-0.4c-0.3,0.3-0.6,0.5-0.9,0.6
			c-0.4,0.2-0.9,0.2-1.4,0.2c-0.7,0-1.3-0.2-1.6-0.5c-0.4-0.3-0.6-0.7-0.6-1.2c0-0.5,0.1-0.8,0.4-1.1c0.3-0.3,0.8-0.5,1.5-0.6
			c0.9-0.2,1.4-0.3,1.7-0.4c0.3-0.1,0.5-0.2,0.8-0.3c0-0.3-0.1-0.5-0.2-0.6c-0.1-0.1-0.3-0.2-0.6-0.2c-0.4,0-0.7,0.1-0.9,0.2
			C120.7,33.5,120.6,33.7,120.5,33.9 M122.5,35.2c-0.3,0.1-0.7,0.2-1,0.3c-0.5,0.1-0.8,0.2-0.9,0.4c-0.1,0.1-0.2,0.3-0.2,0.4
			c0,0.2,0.1,0.3,0.2,0.4c0.1,0.1,0.3,0.2,0.6,0.2c0.2,0,0.5-0.1,0.7-0.2c0.2-0.1,0.4-0.3,0.5-0.5c0.1-0.2,0.1-0.4,0.1-0.7V35.2
			L122.5,35.2z"/>
	</g>
</g>
</svg>
