<svg width="24" height="25" viewBox="0 0 24 25" fill="none" xmlns="http://www.w3.org/2000/svg">
<g filter="url(#filter0_d_474_689)">
<path d="M7.25399 19.3336L7.97799 19.7566C9.19893 20.4687 10.5876 20.8425 12.001 20.8396C13.5832 20.8396 15.13 20.3704 16.4456 19.4914C17.7611 18.6123 18.7865 17.3629 19.392 15.9011C19.9975 14.4393 20.156 12.8307 19.8473 11.2789C19.5386 9.72703 18.7767 8.30157 17.6578 7.18275C16.539 6.06393 15.1136 5.302 13.5617 4.99332C12.0099 4.68464 10.4013 4.84306 8.93952 5.44856C7.47771 6.05406 6.22828 7.07944 5.34923 8.39504C4.47018 9.71063 4.00099 11.2573 4.00099 12.8396C3.99807 14.2535 4.37226 15.6425 5.08499 16.8636L5.50699 17.5876L4.85399 19.9886L7.25399 19.3336ZM2.00499 22.8396L3.35699 17.8716C2.46608 16.3445 1.99804 14.6076 2.00099 12.8396C2.00099 7.3166 6.47799 2.8396 12.001 2.8396C17.524 2.8396 22.001 7.3166 22.001 12.8396C22.001 18.3626 17.524 22.8396 12.001 22.8396C10.2338 22.8425 8.49765 22.3748 6.97099 21.4846L2.00499 22.8396ZM8.39199 8.1476C8.52599 8.1376 8.66099 8.1376 8.79499 8.1436C8.84899 8.1476 8.90299 8.1536 8.95699 8.1596C9.11599 8.1776 9.29099 8.2746 9.34999 8.4086C9.64799 9.0846 9.93799 9.7656 10.218 10.4486C10.28 10.6006 10.243 10.7956 10.125 10.9856C10.065 11.0826 9.97099 11.2186 9.86199 11.3576C9.74899 11.5026 9.50599 11.7686 9.50599 11.7686C9.50599 11.7686 9.40699 11.8866 9.44499 12.0336C9.45899 12.0896 9.50499 12.1706 9.54699 12.2386L9.60599 12.3336C9.86199 12.7606 10.206 13.1936 10.626 13.6016C10.746 13.7176 10.863 13.8366 10.989 13.9476C11.457 14.3606 11.987 14.6976 12.559 14.9476L12.564 14.9496C12.649 14.9866 12.692 15.0066 12.816 15.0596C12.878 15.0856 12.942 15.1076 13.007 15.1256C13.0742 15.1427 13.1449 15.1395 13.2102 15.1163C13.2756 15.0932 13.3326 15.0512 13.374 14.9956C14.098 14.1186 14.164 14.0616 14.17 14.0616V14.0636C14.2203 14.0167 14.28 13.9811 14.3452 13.9592C14.4104 13.9373 14.4796 13.9296 14.548 13.9366C14.608 13.9406 14.669 13.9516 14.725 13.9766C15.256 14.2196 16.125 14.5986 16.125 14.5986L16.707 14.8596C16.805 14.9066 16.894 15.0176 16.897 15.1246C16.901 15.1916 16.907 15.2996 16.884 15.4976C16.852 15.7566 16.774 16.0676 16.696 16.2306C16.6425 16.3418 16.5716 16.4438 16.486 16.5326C16.3851 16.6385 16.2746 16.7349 16.156 16.8206C16.074 16.8826 16.031 16.9106 16.031 16.9106C15.9066 16.9895 15.7788 17.0629 15.648 17.1306C15.3905 17.2674 15.1062 17.3459 14.815 17.3606C14.63 17.3706 14.445 17.3846 14.259 17.3746C14.251 17.3746 13.691 17.2876 13.691 17.2876C12.2692 16.9136 10.9544 16.2131 9.85099 15.2416C9.62499 15.0426 9.41499 14.8286 9.20099 14.6156C8.31299 13.7306 7.63999 12.7756 7.23099 11.8736C7.0227 11.4311 6.91024 10.9496 6.90099 10.4606C6.89723 9.85335 7.09605 9.26217 7.46599 8.7806C7.53899 8.6866 7.60799 8.5886 7.72699 8.4756C7.85299 8.3556 7.93399 8.2916 8.02099 8.2476C8.13666 8.18963 8.26285 8.15562 8.39199 8.1476Z" fill="#344054"/>
</g>
<defs>
<filter id="filter0_d_474_689" x="-17.999" y="-2.1604" width="60" height="60" filterUnits="userSpaceOnUse" color-interpolation-filters="sRGB">
<feFlood flood-opacity="0" result="BackgroundImageFix"/>
<feColorMatrix in="SourceAlpha" type="matrix" values="0 0 0 0 0 0 0 0 0 0 0 0 0 0 0 0 0 0 127 0" result="hardAlpha"/>
<feOffset dy="15"/>
<feGaussianBlur stdDeviation="10"/>
<feColorMatrix type="matrix" values="0 0 0 0 0 0 0 0 0 0 0 0 0 0 0 0 0 0 0.04 0"/>
<feBlend mode="normal" in2="BackgroundImageFix" result="effect1_dropShadow_474_689"/>
<feBlend mode="normal" in="SourceGraphic" in2="effect1_dropShadow_474_689" result="shape"/>
</filter>
</defs>
</svg>
